<svg viewBox="20 316 60 48" version="1.1" xmlns="http://www.w3.org/2000/svg" xmlns:xlink="http://www.w3.org/1999/xlink">
  <desc>Tom Gobich - Front-End Web Developer</desc>
  <defs></defs>
  <g id="logo" stroke="none" stroke-width="1" fill="#f9f8fd" fill-rule="evenodd" transform="translate(20.000000, 317.000000)">
    <polygon id="Path" transform="translate(29.885419, 23.164557) rotate(0.000000) translate(-29.885419, -23.164557) " points="0.000723511071 0 59.7701149 0 50.5747126 9.26538094 22.9885057 9.26538094 22.9885057 37.0632911 13.7931034 46.3291139 13.7931034 9.26538094 9.19612582 9.26538094"></polygon>
    <polygon id="Path" transform="translate(39.597701, 35.268038) scale(-1, -1) translate(-39.597701, -35.268038) " points="19.4260109 28.8398734 53.908046 28.8398734 59.7701149 27.7974684 53.9077903 33.472915 53.908046 38.1052545 28.6206897 38.1052545 28.6206897 42.7386076 19.4252874 33.4727848"></polygon>
    <polygon id="Combined-Shape" points="59.708569 18.6934381 59.7693915 18.6474684 59.7693936 18.6934399 59.7979526 18.6934407 59.7693945 18.715021 59.7701149 34.7468354 50.6125708 25.6345066 50.6025503 25.6420786 34.6255389 18.6927116"></polygon>
  </g>
</svg>